<?xml version="1.0" standalone="no"?><!DOCTYPE svg PUBLIC "-//W3C//DTD SVG 1.1//EN" "http://www.w3.org/Graphics/SVG/1.1/DTD/svg11.dtd"><svg t="1714029681699" class="icon" viewBox="0 0 1024 1024" version="1.1" xmlns="http://www.w3.org/2000/svg" p-id="27947" xmlns:xlink="http://www.w3.org/1999/xlink" width="200" height="200"><path d="M600.177778 786.659556a399.530667 399.530667 0 0 1-176.355556 0L352.711111 1024l-102.798222-170.097778L56.888889 910.563556l123.619555-291.612445a398.222222 398.222222 0 1 1 663.04 0L967.111111 910.563556l-193.024-56.661334L671.345778 1024 600.177778 786.659556zM512 682.666667A284.444444 284.444444 0 1 0 512 113.777778a284.444444 284.444444 0 0 0 0 568.888889z m0-113.777778a170.666667 170.666667 0 1 1 0-341.333333 170.666667 170.666667 0 0 1 0 341.333333z" fill="#000000" p-id="27948"></path></svg>