<?xml version="1.0" standalone="no"?><!DOCTYPE svg PUBLIC "-//W3C//DTD SVG 1.1//EN" "http://www.w3.org/Graphics/SVG/1.1/DTD/svg11.dtd"><svg t="1715050685969" class="icon" viewBox="0 0 1024 1024" version="1.1" xmlns="http://www.w3.org/2000/svg" p-id="4406" xmlns:xlink="http://www.w3.org/1999/xlink" width="200" height="200"><path d="M725.333333 896c-8.533333 0-14.933333-2.133333-21.333333-6.4l-213.333333-128c-12.8-8.533333-21.333333-21.333333-21.333334-36.266667V302.933333l-189.866666-104.533333L128 300.8V490.666667l147.2 98.133333 61.866667-46.933333c19.2-14.933333 44.8-10.666667 59.733333 8.533333 14.933333 19.2 10.666667 44.8-8.533333 59.733333l-85.333334 64c-14.933333 10.666667-34.133333 10.666667-49.066666 2.133334l-192-128c-12.8-8.533333-19.2-21.333333-19.2-36.266667V277.333333c0-14.933333 6.4-27.733333 19.2-36.266666l192-128c12.8-8.533333 29.866667-8.533333 44.8-2.133334l234.666666 128c12.8 8.533333 21.333333 21.333333 21.333334 38.4v424.533334l170.666666 102.4 170.666667-102.4v-166.4l-147.2-98.133334-61.866667 46.933334c-19.2 14.933333-44.8 10.666667-59.733333-8.533334-14.933333-19.2-10.666667-44.8 8.533333-59.733333l85.333334-64c14.933333-10.666667 34.133333-10.666667 49.066666-2.133333l192 128c12.8 8.533333 19.2 21.333333 19.2 36.266666v213.333334c0 14.933333-8.533333 29.866667-21.333333 36.266666l-213.333333 128c-6.4 2.133333-12.8 4.266667-21.333334 4.266667z" fill="#000000" p-id="4407"></path></svg>