<?xml version="1.0" standalone="no"?><!DOCTYPE svg PUBLIC "-//W3C//DTD SVG 1.1//EN" "http://www.w3.org/Graphics/SVG/1.1/DTD/svg11.dtd"><svg t="1713932334586" class="icon" viewBox="0 0 1024 1024" version="1.1" xmlns="http://www.w3.org/2000/svg" p-id="1807" xmlns:xlink="http://www.w3.org/1999/xlink" width="200" height="200"><path d="M188.16 318.144c15.808 14.976 13.824 35.392 10.368 47.68l-2.304 6.848-1.728 3.52a236.288 236.288 0 0 0 182.848 368.768l12.48 0.32h203.52v-87.936a6.4 6.4 0 0 1 9.856-5.376l210.176 136.512a6.4 6.4 0 0 1-0.128 10.816l-210.24 128.96a6.4 6.4 0 0 1-9.728-5.44v-87.872H389.888a325.824 325.824 0 0 1-272.64-504.384l3.328-4.416a52.864 52.864 0 0 1 21.76-16.128c14.144-5.056 33.92-3.2 45.952 8.128z m241.472-225.92a6.4 6.4 0 0 1 0.96 3.328v87.872h203.456a325.824 325.824 0 0 1 272.64 504.384l-3.328 4.416a52.864 52.864 0 0 1-21.76 16.128c-14.144 5.056-33.92 3.2-45.952-8.128-15.744-14.912-13.76-35.392-10.304-47.68l2.304-6.848 1.728-3.52a236.288 236.288 0 0 0-182.848-368.768l-12.48-0.32h-203.52V360.96a6.4 6.4 0 0 1-9.856 5.376L210.56 229.888a6.4 6.4 0 0 1 0.128-10.816l210.176-128.96a6.4 6.4 0 0 1 8.832 2.112z" p-id="1808"></path></svg>