<?xml version="1.0" standalone="no"?><!DOCTYPE svg PUBLIC "-//W3C//DTD SVG 1.1//EN" "http://www.w3.org/Graphics/SVG/1.1/DTD/svg11.dtd"><svg t="1714030972413" class="icon" viewBox="0 0 1024 1024" version="1.1" xmlns="http://www.w3.org/2000/svg" p-id="34824" xmlns:xlink="http://www.w3.org/1999/xlink" width="200" height="200"><path d="M512 0c281.6 0 512 230.4 512 512s-230.4 512-512 512-512-230.4-512-512 230.4-512 512-512z m54.272 293.010286a20.992 20.992 0 0 0-20.992 20.992v84.114285a356.571429 356.571429 0 0 0-141.677714 59.830858c-28.306286 19.236571-53.394286 43.154286-74.898286 71.094857a368.054857 368.054857 0 0 0-43.885714 74.313143 349.915429 349.915429 0 0 0-25.965715 81.334857l-0.292571 1.755428c-0.731429 3.145143-1.609143 7.533714-2.048 14.628572a16.457143 16.457143 0 0 0 4.242286 12.580571c3.145143 3.291429 7.606857 5.12 12.8 5.12 7.68 0 13.604571-6.290286 18.724571-11.776l2.413714-2.56a300.397714 300.397714 0 0 1 82.212572-57.051428 448.512 448.512 0 0 1 89.088-30.72c32.036571-7.460571 60.489143-10.971429 78.628571-12.507429l0.731429-0.073143v94.208a20.992 20.992 0 0 0 34.889143 15.725714l217.965714-192.365714a21.138286 21.138286 0 0 0 0-31.451428l-0.073143-0.146286-217.965714-191.853714a21.065143 21.065143 0 0 0-13.897143-5.193143z" p-id="34825"></path></svg>