<?xml version="1.0" standalone="no"?><!DOCTYPE svg PUBLIC "-//W3C//DTD SVG 1.1//EN" "http://www.w3.org/Graphics/SVG/1.1/DTD/svg11.dtd"><svg t="1713932225769" class="icon" viewBox="0 0 1024 1024" version="1.1" xmlns="http://www.w3.org/2000/svg" p-id="967" xmlns:xlink="http://www.w3.org/1999/xlink" width="200" height="200"><path d="M265.088 696.064a213.333333 213.333333 0 0 1 149.333333 61.013333l98.048 96.085334V170.837333L414.464 266.965333a213.333333 213.333333 0 0 1-149.333333 61.013334H128v368.085333h137.088z m89.6 121.941333a128 128 0 0 0-89.6-36.608H128a85.333333 85.333333 0 0 1-85.333333-85.333333V327.978667a85.333333 85.333333 0 0 1 85.333333-85.333334h137.088a128 128 0 0 0 89.6-36.608l98.005333-96.128c54.016-52.906667 145.066667-14.677333 145.066667 60.928v682.325334c0 75.605333-91.050667 113.877333-145.066667 60.928l-97.962666-96.085334zM968.96 348.885333a44.458667 44.458667 0 0 1 0 61.354667l-98.389333 101.845333 98.474666 101.888a44.458667 44.458667 0 0 1 0 61.354667 40.96 40.96 0 0 1-59.306666 0l-98.432-101.888-98.474667 101.888a40.96 40.96 0 0 1-59.306667 0 44.458667 44.458667 0 0 1 0-61.354667l98.474667-101.888-98.389333-101.845333a44.458667 44.458667 0 0 1 0-61.354667 40.96 40.96 0 0 1 59.306666 0l98.389334 101.802667 98.389333-101.802667a40.96 40.96 0 0 1 59.306667 0z" p-id="968"></path></svg>