<?xml version="1.0" standalone="no"?><!DOCTYPE svg PUBLIC "-//W3C//DTD SVG 1.1//EN" "http://www.w3.org/Graphics/SVG/1.1/DTD/svg11.dtd"><svg t="1713932230958" class="icon" viewBox="0 0 1024 1024" version="1.1" xmlns="http://www.w3.org/2000/svg" p-id="1134" xmlns:xlink="http://www.w3.org/1999/xlink" width="200" height="200"><path d="M266.112 692.736c54.613333 0 107.178667 21.674667 146.773333 60.501333L512 850.304V173.696L412.928 270.762667a209.706667 209.706667 0 0 1-146.773333 60.501333H128v361.472h138.112z m88.106667 124.458667a125.866667 125.866667 0 0 0-88.106667-36.266667H128c-47.146667 0-85.333333-39.466667-85.333333-88.192V331.264c0-48.725333 38.186667-88.192 85.333333-88.192h138.112c32.768 0 64.298667-12.970667 88.064-36.266667l99.114667-97.109333C507.733333 56.405333 597.333333 96.256 597.333333 173.696v676.608c0 77.44-89.642667 117.290667-144.042666 64l-99.072-97.109333z m416-645.205334a46.08 46.08 0 0 1 62.805333 0c197.76 187.946667 197.76 492.714667 0 680.661334a46.08 46.08 0 0 1-62.848 0 40.746667 40.746667 0 0 1 0-59.690667c163.114667-155.008 163.114667-406.272 0-561.28a40.746667 40.746667 0 0 1 0-59.690667z m-117.162667 149.034667a46.08 46.08 0 0 1 62.805333 0c107.562667 102.186667 107.562667 267.946667 0 370.176a46.08 46.08 0 0 1-62.805333 0 40.746667 40.746667 0 0 1 0-59.733333c72.874667-69.205333 72.874667-181.504 0-250.752a40.746667 40.746667 0 0 1 0-59.733334z" p-id="1135"></path></svg>